<?xml version="1.0" encoding="UTF-8" standalone="no"?>
<!-- Created with Inkscape (http://www.inkscape.org/) -->

<svg
   xmlns:dc="http://purl.org/dc/elements/1.1/"
   xmlns:cc="http://creativecommons.org/ns#"
   xmlns:rdf="http://www.w3.org/1999/02/22-rdf-syntax-ns#"
   xmlns:svg="http://www.w3.org/2000/svg"
   xmlns="http://www.w3.org/2000/svg"
   xmlns:xlink="http://www.w3.org/1999/xlink"
   xmlns:sodipodi="http://sodipodi.sourceforge.net/DTD/sodipodi-0.dtd"
   xmlns:inkscape="http://www.inkscape.org/namespaces/inkscape"
   width="20"
   height="20"
   id="svg5453"
   version="1.1"
   inkscape:version="0.91 r13725"
   sodipodi:docname="controller.svg"
   inkscape:export-filename="../controller.png"
   inkscape:export-xdpi="90"
   inkscape:export-ydpi="90">
  <defs
     id="defs5455">
    <linearGradient
       inkscape:collect="always"
       id="linearGradient4204">
      <stop
         style="stop-color:#a3a5a5;stop-opacity:1"
         offset="0"
         id="stop4206" />
      <stop
         style="stop-color:#cbcccd;stop-opacity:1"
         offset="1"
         id="stop4208" />
    </linearGradient>
    <linearGradient
       id="linearGradient4251-0"
       inkscape:collect="always">
      <stop
         id="stop4253-4"
         offset="0"
         style="stop-color:#63984b;stop-opacity:1" />
      <stop
         id="stop4255-2"
         offset="1"
         style="stop-color:#8fc278;stop-opacity:1" />
    </linearGradient>
    <linearGradient
       inkscape:collect="always"
       xlink:href="#linearGradient4251-0"
       id="linearGradient4291"
       x1="408.57144"
       y1="549.79797"
       x2="408.57144"
       y2="497.79797"
       gradientUnits="userSpaceOnUse"
       gradientTransform="matrix(0.38461537,0,0,0.38461538,229.42858,344.33721)" />
    <linearGradient
       inkscape:collect="always"
       xlink:href="#linearGradient4219"
       id="linearGradient4337"
       gradientUnits="userSpaceOnUse"
       x1="408.57144"
       y1="549.79797"
       x2="408.57144"
       y2="497.79797"
       gradientTransform="matrix(0.23076923,0,0,0.23076923,292.28571,424.92152)" />
    <linearGradient
       inkscape:collect="always"
       id="linearGradient4227">
      <stop
         style="stop-color:#292c2f;stop-opacity:1"
         offset="0"
         id="stop4229" />
      <stop
         style="stop-color:#000000;stop-opacity:0;"
         offset="1"
         id="stop4231" />
    </linearGradient>
    <linearGradient
       id="linearGradient4219"
       inkscape:collect="always">
      <stop
         id="stop4221"
         offset="0"
         style="stop-color:#535456;stop-opacity:1" />
      <stop
         id="stop4223"
         offset="1"
         style="stop-color:#6a6b6e;stop-opacity:1" />
    </linearGradient>
    <linearGradient
       inkscape:collect="always"
       xlink:href="#linearGradient4227"
       id="linearGradient4169"
       x1="380.57144"
       y1="539.79797"
       x2="392.57144"
       y2="551.79797"
       gradientUnits="userSpaceOnUse" />
    <linearGradient
       inkscape:collect="always"
       xlink:href="#linearGradient4204"
       id="linearGradient4202"
       x1="4"
       y1="19"
       x2="4"
       y2="2"
       gradientUnits="userSpaceOnUse" />
    <linearGradient
       inkscape:collect="always"
       xlink:href="#linearGradient4227"
       id="linearGradient4218"
       x1="378.57144"
       y1="537.79797"
       x2="393.57144"
       y2="552.79797"
       gradientUnits="userSpaceOnUse" />
  </defs>
  <sodipodi:namedview
     id="base"
     pagecolor="#ffffff"
     bordercolor="#666666"
     borderopacity="1.0"
     inkscape:pageopacity="0"
     inkscape:pageshadow="2"
     inkscape:zoom="22.627417"
     inkscape:cx="-5.637793"
     inkscape:cy="-0.75237373"
     inkscape:document-units="px"
     inkscape:current-layer="layer1"
     showgrid="true"
     fit-margin-top="0"
     fit-margin-left="0"
     fit-margin-right="0"
     fit-margin-bottom="0"
     inkscape:window-width="1876"
     inkscape:window-height="1051"
     inkscape:window-x="0"
     inkscape:window-y="0"
     inkscape:window-maximized="1"
     inkscape:showpageshadow="false"
     borderlayer="true"
     showguides="true">
    <inkscape:grid
       type="xygrid"
       id="grid4063"
       originx="8"
       originy="8"
       empspacing="2" />
    <sodipodi:guide
       position="64,64"
       orientation="0,-64"
       id="guide4200" />
    <sodipodi:guide
       position="6,58"
       orientation="52,0"
       id="guide4202" />
    <sodipodi:guide
       position="6,6"
       orientation="0,52"
       id="guide4204" />
    <sodipodi:guide
       position="58,6"
       orientation="-52,0"
       id="guide4206" />
  </sodipodi:namedview>
  <metadata
     id="metadata5458">
    <rdf:RDF>
      <cc:Work
         rdf:about="">
        <dc:format>image/svg+xml</dc:format>
        <dc:type
           rdf:resource="http://purl.org/dc/dcmitype/StillImage" />
        <dc:title />
      </cc:Work>
    </rdf:RDF>
  </metadata>
  <g
     inkscape:label="Capa 1"
     inkscape:groupmode="layer"
     id="layer1"
     transform="translate(-376.57144,-535.79797)">
    <path
       style="opacity:1;fill:url(#linearGradient4291);fill-opacity:1;stroke:none"
       d="m 376.57144,535.79797 0,20 20,0 0,-20 z"
       id="rect4283"
       inkscape:connector-curvature="0"
       sodipodi:nodetypes="ccccc" />
    <path
       inkscape:connector-curvature="0"
       style="color:#000000;font-style:normal;font-variant:normal;font-weight:normal;font-stretch:normal;font-size:medium;line-height:normal;font-family:Sans;-inkscape-font-specification:Sans;text-indent:0;text-align:start;text-decoration:none;text-decoration-line:none;letter-spacing:normal;word-spacing:normal;text-transform:none;direction:ltr;block-progression:tb;writing-mode:lr-tb;baseline-shift:baseline;text-anchor:start;display:inline;overflow:visible;visibility:visible;opacity:0.6;fill:#dee372;fill-opacity:1;stroke:none;stroke-width:1;marker:none;enable-background:accumulate"
       d="m 394.07144,554.29796 z m 0,0 0,0.50001 -0.5,0 0,-0.50001 z m -0.5,0 -0.5,0 0,-0.49999 0.5,0 z m -0.5,0 0,0.50001 -0.50001,0 0,-0.50001 z m -0.50001,0 -0.49999,0 0,-0.49999 0.49999,0 z m -0.49999,0 0,0.50001 -0.50001,0 0,-0.50001 z m -0.50001,0 -0.49999,0 0,-0.49999 0.49999,0 z m -0.49999,0 0,0.50001 -0.5,0 0,-0.50001 z m -0.5,0 -0.5,0 0,-0.49999 0.5,0 z m -0.5,0 0,0.50001 -0.5,0 0,-0.50001 z m -0.5,0 -0.5,0 0,-0.49999 0.5,0 z m -0.5,0 0,0.50001 -0.5,0 0,-0.50001 z"
       id="path4303-6"
       sodipodi:nodetypes="ccccccccccccccccccccccccccccccccccccccccccccccccccccccccc" />
    <path
       id="path4331"
       d="m 378.57144,553.79797 0,0.49999 0.5,0 0,-0.49999 -0.5,0 z m 0.5,0.49999 0,0.50001 0.5,0 0,-0.50001 -0.5,0 z m 0.5,0 0.5,0 0,-0.49999 -0.5,0 0,0.49999 z m 0.5,0 0,0.50001 0.5,0 0,-0.50001 -0.5,0 z m 0.5,0 0.5,0 0,-0.49999 -0.5,0 0,0.49999 z m 0.5,0 0,0.50001 0.50001,0 0,-0.50001 -0.50001,0 z m 0.50001,0 0.49999,0 0,-0.49999 -0.49999,0 0,0.49999 z m 0.49999,0 0,0.50001 0.50001,0 0,-0.50001 -0.50001,0 z m 0.50001,0 0.49999,0 0,-0.49999 -0.49999,0 0,0.49999 z m 0.49999,0 0,0.50001 0.50001,0 0,-0.50001 -0.50001,0 z m 0.50001,0 0.49999,0 0,-0.49999 -0.49999,0 0,0.49999 z m 0.49999,0 0,0.50001 0.5,0 0,-0.50001 -0.5,0 z m 0.5,0 0.5,0 0,-0.49999 -0.5,0 0,0.49999 z m 0.5,0 0,0.50001 0.5,0 0,-0.50001 -0.5,0 z m 0.5,0 0.5,0 0,-0.49999 -0.5,0 0,0.49999 z m 0.5,0 0,0.50001 0.5,0 0,-0.50001 -0.5,0 z"
       style="color:#000000;font-style:normal;font-variant:normal;font-weight:normal;font-stretch:normal;font-size:medium;line-height:normal;font-family:Sans;-inkscape-font-specification:Sans;text-indent:0;text-align:start;text-decoration:none;text-decoration-line:none;letter-spacing:normal;word-spacing:normal;text-transform:none;direction:ltr;block-progression:tb;writing-mode:lr-tb;baseline-shift:baseline;text-anchor:start;display:inline;overflow:visible;visibility:visible;opacity:0.6;fill:#dee372;fill-opacity:1;stroke:none;stroke-width:1;marker:none;enable-background:accumulate"
       inkscape:connector-curvature="0" />
    <path
       style="opacity:0.2;fill:url(#linearGradient4218);fill-opacity:1;fill-rule:evenodd;stroke:none;stroke-width:1px;stroke-linecap:butt;stroke-linejoin:miter;stroke-opacity:1"
       d="m 378.57144,541.79797 1,1 -1,1 1,1 -1,1 1,1 -1,1 1,1 -1,1 6,6 12,0 0,-12 -6,-6 -1,1 -1,-1 -1,1 -1,-1 -1,1 -1,-1 -1,1 -1,-1 -1,3 z"
       id="path4210"
       inkscape:connector-curvature="0" />
    <path
       style="color:#000000;clip-rule:nonzero;display:inline;overflow:visible;visibility:visible;opacity:1;isolation:auto;mix-blend-mode:normal;color-interpolation:sRGB;color-interpolation-filters:linearRGB;solid-color:#000000;solid-opacity:1;fill:url(#linearGradient4202);fill-opacity:1;fill-rule:nonzero;stroke:#6a6b6e;stroke-width:0;stroke-linecap:butt;stroke-linejoin:miter;stroke-miterlimit:4;stroke-dasharray:none;stroke-dashoffset:0;stroke-opacity:1;marker:none;color-rendering:auto;image-rendering:auto;shape-rendering:auto;text-rendering:auto;enable-background:accumulate"
       d="M 5,2 5,5 2,5 2,6 5,6 5,7 2,7 2,8 5,8 5,9 2,9 l 0,1 3,0 0,1 -3,0 0,1 3,0 0,1 -3,0 0,1 3,0 0,3 1,0 0,-3 1,0 0,3 1,0 0,-3 1,0 0,3 1,0 0,-3 1,0 0,3 1,0 0,-3 1,0 0,3 1,0 0,-3 3,0 0,-1 -3,0 0,-1 3,0 0,-1 -3,0 0,-1 3,0 0,-1 -3,0 0,-1 3,0 0,-1 -3,0 0,-1 3,0 0,-1 -3,0 0,-3 -1,0 0,3 -1,0 0,-3 -1,0 0,3 L 10,5 10,2 9,2 9,5 8,5 8,2 7,2 7,5 6,5 6,2 Z M 6,6 7,6 7,7 6,7 Z M 8,6 9,6 9,7 8,7 Z m 2,0 1,0 0,1 -1,0 z m 2,0 1,0 0,1 -1,0 z M 6,8 7,8 7,9 6,9 Z M 8,8 9,8 9,9 8,9 Z m 2,0 1,0 0,1 -1,0 z m 2,0 1,0 0,1 -1,0 z m -6,2 1,0 0,1 -1,0 z m 2,0 1,0 0,1 -1,0 z m 2,0 1,0 0,1 -1,0 z m 2,0 1,0 0,1 -1,0 z m -6,2 1,0 0,1 -1,0 z m 2,0 1,0 0,1 -1,0 z m 2,0 1,0 0,1 -1,0 z m 2,0 1,0 0,1 -1,0 z"
       transform="translate(376.57144,535.79797)"
       id="rect4171"
       inkscape:connector-curvature="0"
       sodipodi:nodetypes="ccccccccccccccccccccccccccccccccccccccccccccccccccccccccccccccccccccccccccccccccccccccccccccccccccccccccccccccccccccccccccccccccccccccccccccccccccccccccccccc" />
    <path
       style="opacity:0.2;fill:url(#linearGradient4169);fill-opacity:1;fill-rule:evenodd;stroke:none;stroke-width:1px;stroke-linecap:butt;stroke-linejoin:miter;stroke-opacity:1"
       d="m 391.57144,539.79797 8,8 -11,11 -8,-8 z"
       id="path4161"
       inkscape:connector-curvature="0"
       sodipodi:nodetypes="ccccc" />
    <rect
       y="539.79797"
       x="380.57144"
       height="10.999996"
       width="10.999998"
       id="rect4335"
       style="opacity:1;fill:url(#linearGradient4337);fill-opacity:1;stroke:none" />
    <rect
       style="opacity:1;fill:#3f4041;fill-opacity:1;stroke:none"
       id="rect4167"
       width="10.999998"
       height="1"
       x="380.57144"
       y="549.79797" />
    <path
       inkscape:connector-curvature="0"
       style="color:#000000;font-style:normal;font-variant:normal;font-weight:normal;font-stretch:normal;font-size:medium;line-height:normal;font-family:Sans;-inkscape-font-specification:Sans;text-indent:0;text-align:start;text-decoration:none;text-decoration-line:none;letter-spacing:normal;word-spacing:normal;text-transform:none;direction:ltr;block-progression:tb;writing-mode:lr-tb;baseline-shift:baseline;text-anchor:start;display:inline;overflow:visible;visibility:visible;opacity:0.6;fill:#dee372;fill-opacity:1;stroke:none;stroke-width:1;marker:none;enable-background:accumulate"
       d="m 395.07145,551.79797 z m 0,0 -0.50001,0 0,-0.5 0.50001,0 z m 0,-0.5 0,-0.5 0.49999,0 0,0.5 z m 0,-0.5 -0.50001,0 0,-0.50001 0.50001,0 z m 0,-0.50001 0,-0.49999 0.49999,0 0,0.49999 z m 0,-0.49999 -0.50001,0 0,-0.50001 0.50001,0 z m 0,-0.50001 0,-0.49999 0.49999,0 0,0.49999 z m 0,-0.49999 -0.50001,0 0,-0.5 0.50001,0 z m 0,-0.5 0,-0.5 0.49999,0 0,0.5 z m 0,-0.5 -0.50001,0 0,-0.5 0.50001,0 z m 0,-0.5 0,-0.5 0.49999,0 0,0.5 z m 0,-0.5 -0.50001,0 0,-0.5 0.50001,0 z"
       id="path4303-6-3"
       sodipodi:nodetypes="ccccccccccccccccccccccccccccccccccccccccccccccccccccccccc" />
    <path
       id="path4331-6"
       d="m 395.57144,536.29797 -0.49999,0 0,0.5 0.49999,0 0,-0.5 z m -0.49999,0.5 -0.50001,0 0,0.5 0.50001,0 0,-0.5 z m 0,0.5 0,0.5 0.49999,0 0,-0.5 -0.49999,0 z m 0,0.5 -0.50001,0 0,0.5 0.50001,0 0,-0.5 z m 0,0.5 0,0.5 0.49999,0 0,-0.5 -0.49999,0 z m 0,0.5 -0.50001,0 0,0.50001 0.50001,0 0,-0.50001 z m 0,0.50001 0,0.49999 0.49999,0 0,-0.49999 -0.49999,0 z m 0,0.49999 -0.50001,0 0,0.50001 0.50001,0 0,-0.50001 z m 0,0.50001 0,0.49999 0.49999,0 0,-0.49999 -0.49999,0 z m 0,0.49999 -0.50001,0 0,0.50001 0.50001,0 0,-0.50001 z m 0,0.50001 0,0.49999 0.49999,0 0,-0.49999 -0.49999,0 z m 0,0.49999 -0.50001,0 0,0.5 0.50001,0 0,-0.5 z m 0,0.5 0,0.5 0.49999,0 0,-0.5 -0.49999,0 z m 0,0.5 -0.50001,0 0,0.5 0.50001,0 0,-0.5 z m 0,0.5 0,0.5 0.49999,0 0,-0.5 -0.49999,0 z m 0,0.5 -0.50001,0 0,0.5 0.50001,0 0,-0.5 z"
       style="color:#000000;font-style:normal;font-variant:normal;font-weight:normal;font-stretch:normal;font-size:medium;line-height:normal;font-family:Sans;-inkscape-font-specification:Sans;text-indent:0;text-align:start;text-decoration:none;text-decoration-line:none;letter-spacing:normal;word-spacing:normal;text-transform:none;direction:ltr;block-progression:tb;writing-mode:lr-tb;baseline-shift:baseline;text-anchor:start;display:inline;overflow:visible;visibility:visible;opacity:0.6;fill:#dee372;fill-opacity:1;stroke:none;stroke-width:1;marker:none;enable-background:accumulate"
       inkscape:connector-curvature="0" />
  </g>
</svg>
