<?xml version="1.0" encoding="UTF-8" standalone="no"?>
<!-- Created with Inkscape (http://www.inkscape.org/) -->

<svg
   xmlns:dc="http://purl.org/dc/elements/1.1/"
   xmlns:cc="http://creativecommons.org/ns#"
   xmlns:rdf="http://www.w3.org/1999/02/22-rdf-syntax-ns#"
   xmlns:svg="http://www.w3.org/2000/svg"
   xmlns="http://www.w3.org/2000/svg"
   xmlns:xlink="http://www.w3.org/1999/xlink"
   xmlns:sodipodi="http://sodipodi.sourceforge.net/DTD/sodipodi-0.dtd"
   xmlns:inkscape="http://www.inkscape.org/namespaces/inkscape"
   width="64"
   height="64"
   id="svg5453"
   version="1.1"
   inkscape:version="0.91 r13725"
   sodipodi:docname="harddisk.svg"
   inkscape:export-filename="../harddisk.png"
   inkscape:export-xdpi="28.125"
   inkscape:export-ydpi="28.125">
  <defs
     id="defs5455">
    <linearGradient
       id="linearGradient4903"
       inkscape:collect="always">
      <stop
         id="stop4905"
         offset="0"
         style="stop-color:#eef1f2;stop-opacity:1" />
      <stop
         id="stop4907"
         offset="1"
         style="stop-color:#f9fafb;stop-opacity:1" />
    </linearGradient>
    <linearGradient
       gradientTransform="matrix(1.1250015,0,0,1,-59.071952,-8.0000193)"
       gradientUnits="userSpaceOnUse"
       y2="503.798"
       x2="409.57144"
       y1="543.79797"
       x1="409.57144"
       id="linearGradient4158"
       xlink:href="#linearGradient4303"
       inkscape:collect="always" />
    <linearGradient
       inkscape:collect="always"
       id="linearGradient4303">
      <stop
         style="stop-color:#c6cdd1;stop-opacity:1"
         offset="0"
         id="stop4305" />
      <stop
         style="stop-color:#e0e5e7;stop-opacity:1"
         offset="1"
         id="stop4307" />
    </linearGradient>
    <linearGradient
       inkscape:collect="always"
       xlink:href="#linearGradient4903"
       id="linearGradient4659"
       x1="31.999989"
       y1="52.000027"
       x2="31.999989"
       y2="8.0000267"
       gradientUnits="userSpaceOnUse" />
    <linearGradient
       inkscape:collect="always"
       xlink:href="#linearGradient4400"
       id="linearGradient4881"
       x1="399.57144"
       y1="512.79797"
       x2="419.57144"
       y2="532.79797"
       gradientUnits="userSpaceOnUse" />
    <linearGradient
       inkscape:collect="always"
       id="linearGradient4400">
      <stop
         style="stop-color:#020303;stop-opacity:1"
         offset="0"
         id="stop4402" />
      <stop
         style="stop-color:#424649;stop-opacity:0"
         offset="1"
         id="stop4404" />
    </linearGradient>
    <linearGradient
       inkscape:collect="always"
       id="linearGradient4290">
      <stop
         style="stop-color:#7cbaf8;stop-opacity:1"
         offset="0"
         id="stop4292" />
      <stop
         style="stop-color:#f4fcff;stop-opacity:1"
         offset="1"
         id="stop4294" />
    </linearGradient>
    <linearGradient
       gradientUnits="userSpaceOnUse"
       y2="527.79797"
       x2="398.57144"
       y1="535.79797"
       x1="398.57144"
       id="linearGradient4194"
       xlink:href="#linearGradient4290"
       inkscape:collect="always" />
    <linearGradient
       gradientUnits="userSpaceOnUse"
       y2="122.81936"
       x2="538.42279"
       y1="260.88647"
       x1="538.42279"
       id="linearGradient4232"
       xlink:href="#linearGradient4226"
       inkscape:collect="always"
       gradientTransform="matrix(0.14959446,0,0,0.14959446,385.91117,510.3726)" />
    <linearGradient
       id="linearGradient4226"
       inkscape:collect="always">
      <stop
         id="stop4228"
         offset="0"
         style="stop-color:#262f45;stop-opacity:1;" />
      <stop
         id="stop4230"
         offset="1"
         style="stop-color:#485982;stop-opacity:1" />
    </linearGradient>
    <linearGradient
       gradientUnits="userSpaceOnUse"
       y2="30.334101"
       x2="103.20959"
       y1="114.29383"
       x1="103.20959"
       id="linearGradient4257"
       xlink:href="#linearGradient4286"
       inkscape:collect="always" />
    <linearGradient
       inkscape:collect="always"
       id="linearGradient4286">
      <stop
         style="stop-color:#2397d4;stop-opacity:1;"
         offset="0"
         id="stop4288" />
      <stop
         style="stop-color:#55b2e4;stop-opacity:1"
         offset="1"
         id="stop4290" />
    </linearGradient>
    <linearGradient
       inkscape:collect="always"
       xlink:href="#linearGradient4290"
       id="linearGradient4264"
       gradientUnits="userSpaceOnUse"
       x1="398.57144"
       y1="535.79797"
       x2="398.57144"
       y2="527.79797" />
    <linearGradient
       inkscape:collect="always"
       xlink:href="#linearGradient4400"
       id="linearGradient4274"
       x1="399.57144"
       y1="507.798"
       x2="423.57144"
       y2="531.79797"
       gradientUnits="userSpaceOnUse" />
  </defs>
  <sodipodi:namedview
     id="base"
     pagecolor="#ffffff"
     bordercolor="#666666"
     borderopacity="1.0"
     inkscape:pageopacity="0"
     inkscape:pageshadow="2"
     inkscape:zoom="4.0000002"
     inkscape:cx="-4.462656"
     inkscape:cy="41.812851"
     inkscape:document-units="px"
     inkscape:current-layer="layer1"
     showgrid="true"
     fit-margin-top="0"
     fit-margin-left="0"
     fit-margin-right="0"
     fit-margin-bottom="0"
     inkscape:window-width="1876"
     inkscape:window-height="1051"
     inkscape:window-x="0"
     inkscape:window-y="0"
     inkscape:window-maximized="1"
     inkscape:showpageshadow="false"
     borderlayer="true"
     showguides="true">
    <inkscape:grid
       type="xygrid"
       id="grid4063"
       originx="7.9999866px"
       originy="7.9999772px" />
    <sodipodi:guide
       position="0,0"
       orientation="0,64"
       id="guide4196" />
    <sodipodi:guide
       position="64,0"
       orientation="-64,0"
       id="guide4198" />
    <sodipodi:guide
       position="64,64"
       orientation="0,-64"
       id="guide4200" />
    <sodipodi:guide
       position="6,58"
       orientation="52,0"
       id="guide4202" />
    <sodipodi:guide
       position="6,6"
       orientation="0,52"
       id="guide4204" />
    <sodipodi:guide
       position="58,6"
       orientation="-52,0"
       id="guide4206" />
    <sodipodi:guide
       position="58,58"
       orientation="0,-52"
       id="guide4208" />
    <sodipodi:guide
       position="23,43"
       orientation="20,0"
       id="guide4867" />
    <sodipodi:guide
       position="23,23"
       orientation="0,20"
       id="guide4869" />
    <sodipodi:guide
       position="43,23"
       orientation="-20,0"
       id="guide4871" />
    <sodipodi:guide
       position="43,43"
       orientation="0,-20"
       id="guide4873" />
    <sodipodi:guide
       position="15.000002,48.999966"
       orientation="13.999969,0"
       id="guide4221" />
    <sodipodi:guide
       position="15.000002,34.999996"
       orientation="0,14"
       id="guide4223" />
    <sodipodi:guide
       position="29.000002,34.999996"
       orientation="-13.999969,0"
       id="guide4225" />
    <sodipodi:guide
       position="29.000002,48.999966"
       orientation="0,-14"
       id="guide4227" />
  </sodipodi:namedview>
  <metadata
     id="metadata5458">
    <rdf:RDF>
      <cc:Work
         rdf:about="">
        <dc:format>image/svg+xml</dc:format>
        <dc:type
           rdf:resource="http://purl.org/dc/dcmitype/StillImage" />
        <dc:title />
      </cc:Work>
    </rdf:RDF>
  </metadata>
  <g
     inkscape:label="Capa 1"
     inkscape:groupmode="layer"
     id="layer1"
     transform="translate(-376.57144,-491.79797)">
    <rect
       style="opacity:1;fill:url(#linearGradient4158);fill-opacity:1;stroke:none"
       id="rect4139"
       width="45.999985"
       height="51.999908"
       x="385.57144"
       y="497.798"
       ry="0" />
    <path
       style="fill:url(#linearGradient4881);fill-rule:evenodd;stroke:none;stroke-width:1px;stroke-linecap:butt;stroke-linejoin:miter;stroke-opacity:1;fill-opacity:1;opacity:0.2"
       d="m 387.57143,543.79799 6,6 37,0 1,-2e-5 0,-46.99998 0,-1 -2,-2 0,44 z"
       id="path4795"
       inkscape:connector-curvature="0" />
    <rect
       style="opacity:1;fill:#737b81;fill-opacity:1;stroke:none;stroke-width:2.79999995;stroke-miterlimit:4;stroke-dasharray:none;stroke-opacity:0.55026455"
       id="rect4492"
       width="45.999985"
       height="1.0000228"
       x="385.57144"
       y="548.79797" />
    <rect
       style="opacity:1;fill:#292c2e;fill-opacity:1;stroke:none;stroke-width:0.1;stroke-miterlimit:4;stroke-dasharray:none;stroke-opacity:1"
       id="rect4671"
       width="30"
       height="3.999939"
       x="393.57144"
       y="545.7981" />
    <rect
       ry="7.7999926"
       y="506.89804"
       x="400.77151"
       height="15.599988"
       width="15.599988"
       id="rect4963"
       style="opacity:1;fill:#abb9be;fill-opacity:1;stroke:none;stroke-width:0.1;stroke-miterlimit:4;stroke-dasharray:none;stroke-opacity:1" />
    <path
       style="fill:url(#linearGradient4659);fill-rule:evenodd;stroke:none;stroke-width:1px;stroke-linecap:butt;stroke-linejoin:miter;stroke-opacity:1;fill-opacity:1.0"
       d="M 11 8 L 11 52 L 32 52 L 53 52 L 53 8 L 32 8 L 11 8 z "
       id="path4648"
       transform="translate(376.57144,491.79797)" />
    <rect
       style="opacity:1;fill:#fdbc4a;fill-opacity:1;stroke:none;stroke-width:0.1;stroke-miterlimit:4;stroke-dasharray:none;stroke-opacity:1"
       id="rect4985"
       width="11.999987"
       height="5.0000229"
       x="390.57144"
       y="532.79822" />
    <rect
       style="opacity:1;fill:#ffffff;fill-opacity:1;stroke:none;stroke-width:0.1;stroke-miterlimit:4;stroke-dasharray:none;stroke-opacity:1"
       id="rect5119"
       width="9.9999866"
       height="1.0000228"
       x="391.57144"
       y="533.79822" />
    <rect
       style="opacity:1;fill:#ffffff;fill-opacity:1;stroke:none;stroke-width:0.1;stroke-miterlimit:4;stroke-dasharray:none;stroke-opacity:1"
       id="rect5121"
       width="7.9999866"
       height="1.0000228"
       x="391.57144"
       y="535.79846" />
    <rect
       style="opacity:1;fill:#202324;fill-opacity:1;stroke:none;stroke-opacity:1"
       id="rect4194"
       width="29.999987"
       height="1"
       x="393.57144"
       y="548.79797" />
    <rect
       style="opacity:1;fill:#f9cf8d;fill-opacity:1;stroke:none;stroke-opacity:1"
       id="rect4544"
       width="1.9999866"
       height="1"
       x="395.5715"
       y="546.79797"
       ry="9.6193602e-05" />
    <rect
       style="opacity:1;fill:#f6b44d;fill-opacity:1;stroke:none;stroke-opacity:1"
       id="rect4546"
       width="1.9999866"
       height="1"
       x="395.5715"
       y="547.79797"
       ry="9.6193602e-05" />
    <rect
       style="opacity:1;fill:#f9cf8d;fill-opacity:1;stroke:none;stroke-opacity:1"
       id="rect4544-0"
       width="1.9999866"
       height="1"
       x="419.5715"
       y="546.79797"
       ry="9.6193602e-05" />
    <rect
       style="opacity:1;fill:#f6b44d;fill-opacity:1;stroke:none;stroke-opacity:1"
       id="rect4546-7"
       width="1.9999866"
       height="1"
       x="419.5715"
       y="547.79797"
       ry="9.6193602e-05" />
    <rect
       style="opacity:1;fill:#f9cf8d;fill-opacity:1;stroke:none;stroke-opacity:1"
       id="rect4544-6"
       width="1.9999866"
       height="1"
       x="398.5715"
       y="546.79797"
       ry="9.6193602e-05" />
    <rect
       style="opacity:1;fill:#f6b44d;fill-opacity:1;stroke:none;stroke-opacity:1"
       id="rect4546-5"
       width="1.9999866"
       height="1"
       x="398.5715"
       y="547.79797"
       ry="9.6193602e-05" />
    <rect
       style="opacity:1;fill:#f9cf8d;fill-opacity:1;stroke:none;stroke-opacity:1"
       id="rect4544-1"
       width="1.9999866"
       height="1"
       x="401.5715"
       y="546.79797"
       ry="9.6193602e-05" />
    <rect
       style="opacity:1;fill:#f6b44d;fill-opacity:1;stroke:none;stroke-opacity:1"
       id="rect4546-3"
       width="1.9999866"
       height="1"
       x="401.5715"
       y="547.79797"
       ry="9.6193602e-05" />
    <rect
       style="opacity:1;fill:#f9cf8d;fill-opacity:1;stroke:none;stroke-opacity:1"
       id="rect4544-06"
       width="1.9999866"
       height="1"
       x="407.57144"
       y="546.79797"
       ry="9.6193602e-05" />
    <rect
       style="opacity:1;fill:#f6b44d;fill-opacity:1;stroke:none;stroke-opacity:1"
       id="rect4546-6"
       width="1.9999866"
       height="1"
       x="407.57144"
       y="547.79797"
       ry="9.6193602e-05" />
    <rect
       style="opacity:1;fill:#f9cf8d;fill-opacity:1;stroke:none;stroke-opacity:1"
       id="rect4544-9"
       width="1.9999866"
       height="1"
       x="416.5715"
       y="546.79797"
       ry="9.6193602e-05" />
    <rect
       style="opacity:1;fill:#f6b44d;fill-opacity:1;stroke:none;stroke-opacity:1"
       id="rect4546-0"
       width="1.9999866"
       height="1"
       x="416.5715"
       y="547.79797"
       ry="9.6193602e-05" />
    <rect
       style="opacity:1;fill:#f9cf8d;fill-opacity:1;stroke:none;stroke-opacity:1"
       id="rect4544-8"
       width="1.9999866"
       height="1"
       x="413.5715"
       y="546.79797"
       ry="9.6193602e-05" />
    <rect
       style="opacity:1;fill:#f6b44d;fill-opacity:1;stroke:none;stroke-opacity:1"
       id="rect4546-55"
       width="1.9999866"
       height="1"
       x="413.5715"
       y="547.79797"
       ry="9.6193602e-05" />
    <rect
       style="opacity:1;fill:#f9cf8d;fill-opacity:1;stroke:none;stroke-opacity:1"
       id="rect4544-8-8"
       width="1.9999866"
       height="1"
       x="410.5715"
       y="546.79797"
       ry="9.6193602e-05" />
    <rect
       style="opacity:1;fill:#f6b44d;fill-opacity:1;stroke:none;stroke-opacity:1"
       id="rect4546-55-5"
       width="1.9999866"
       height="1"
       x="410.5715"
       y="547.79797"
       ry="9.6193602e-05" />
    <rect
       style="opacity:1;fill:#f9cf8d;fill-opacity:1;stroke:none;stroke-opacity:1"
       id="rect4544-8-89"
       width="1.9999866"
       height="1"
       x="404.5715"
       y="546.79797"
       ry="9.6193602e-05" />
    <rect
       style="opacity:1;fill:#f6b44d;fill-opacity:1;stroke:none;stroke-opacity:1"
       id="rect4546-55-7"
       width="1.9999866"
       height="1"
       x="404.5715"
       y="547.79797"
       ry="9.6193602e-05" />
    <rect
       style="opacity:1;fill:#4d4d4d;fill-opacity:1;stroke:none;stroke-width:0.1;stroke-miterlimit:4;stroke-dasharray:none;stroke-opacity:1"
       id="rect4979"
       width="12.999987"
       height="0.99999231"
       x="414.57144"
       y="532.79797" />
    <rect
       style="opacity:1;fill:#4d4d4d;fill-opacity:1;stroke:none;stroke-width:0.1;stroke-miterlimit:4;stroke-dasharray:none;stroke-opacity:1"
       id="rect4981"
       width="13.000044"
       height="1"
       x="414.57144"
       y="534.79803" />
    <rect
       style="opacity:1;fill:#4d4d4d;fill-opacity:1;stroke:none;stroke-width:0.1;stroke-miterlimit:4;stroke-dasharray:none;stroke-opacity:1"
       id="rect4983"
       width="13.000013"
       height="1"
       x="414.57144"
       y="536.79822" />
    <path
       style="opacity:0.2;fill:url(#linearGradient4274);fill-opacity:1;fill-rule:evenodd;stroke:none;stroke-width:1px;stroke-linecap:butt;stroke-linejoin:miter;stroke-opacity:1"
       d="m 404.57143,529.79799 13,13 11,0 -0.1875,-17.00002 -13,-13 -6.8125,3.00002 -6,-2 -3,6 1,6 z"
       id="path4266"
       inkscape:connector-curvature="0"
       sodipodi:nodetypes="cccccccccc" />
    <g
       transform="matrix(0.98304976,0,0,0.98304976,14.789797,-6.7931133)"
       id="layer1-5"
       inkscape:label="Capa 1">
      <g
         id="text4184"
         style="font-style:normal;font-variant:normal;font-weight:bold;font-stretch:normal;font-size:12.5px;line-height:125%;font-family:'Clear Sans';-inkscape-font-specification:'Clear Sans Bold';letter-spacing:0px;word-spacing:0px;opacity:1;fill:url(#linearGradient4194);fill-opacity:1;stroke:none;stroke-width:1px;stroke-linecap:butt;stroke-linejoin:miter;stroke-opacity:1">
        <g
           style="fill:url(#linearGradient4264);fill-opacity:1"
           id="g4171">
          <g
             style="fill:#2397d4;fill-opacity:1"
             id="g5423"
             transform="matrix(0.14959446,0,0,0.14959446,371.66858,439.78892)">
            <path
               id="path3042-0-6-4"
               transform="translate(95.208039,484.36743)"
               d="m 92.599609,30.003906 a 8.0761247,8.0761247 0 0 0 -8.3125,8.072266 8.0761705,8.0761705 0 0 0 16.152341,0 8.0761247,8.0761247 0 0 0 -7.839841,-8.072266 z m 19.822271,15.34375 a 9.2875434,9.2875434 0 0 0 -9.5586,9.285156 9.2875434,9.2875434 0 0 0 18.57422,0 9.2875434,9.2875434 0 0 0 -9.01562,-9.285156 z M 96.292969,61.501953 a 10.095156,10.095156 0 0 0 -10.390625,10.089844 10.095703,10.095703 0 0 0 20.191406,0 10.095156,10.095156 0 0 0 -9.800781,-10.089844 z m 19.097651,19.761719 c -6.23507,0.0051 -11.30687,5.080285 -11.29687,11.322266 0.004,6.225519 5.0757,11.291012 11.30664,11.291012 l 0.01,0 c 6.23404,-0.006 11.29687,-5.080292 11.29687,-11.322262 -0.006,-6.22553 -5.07725,-11.291016 -11.31641,-11.291016 z m -32.728511,7.269531 c -6.67896,0.0071 -12.113515,5.442303 -12.103515,12.132817 0.0071,6.6683 5.440381,12.09375 12.113281,12.09375 l 0.0098,0 0,0.002 c 6.67896,-0.007 12.105468,-5.44425 12.105468,-12.13477 -0.0081,-6.668297 -5.44202,-12.093747 -12.125,-12.093747 z"
               style="fill:url(#linearGradient4257);fill-opacity:1"
               inkscape:connector-curvature="0" />
          </g>
          <path
             sodipodi:nodetypes="ccsssccscccscsssc"
             id="path4687-7-56-1-0-2-2-7"
             d="m 394.34806,528.40282 c -0.40608,0.007 -0.80819,0.14573 -1.11787,0.4707 -1.56332,2.02633 -2.83119,4.30554 -2.83119,7.06659 0,5.98472 4.54145,10.92039 10.17242,10.92039 5.6308,0 10.17243,-4.93564 10.17243,-10.92039 0,-2.7616 -1.26976,-4.96839 -2.92147,-7.06659 -0.61936,-0.64993 -1.51379,-0.55321 -2.16474,-0.13732 -1.90479,0.98561 -2.93284,1.37937 -5.08621,1.36972 -2.08265,-0.009 -3.17694,-0.34945 -5.08184,-1.38784 -0.32546,-0.1989 -0.73545,-0.32261 -1.14152,-0.31526 z m 0.23959,2.15189 c 1.97438,1.09167 3.73523,1.64554 5.98377,1.64554 2.25044,0 4.00838,-0.55388 5.98378,-1.64554 1.0779,1.51985 2.09432,3.40445 2.09432,5.3854 0,4.90689 -3.61649,8.82607 -8.0781,8.82607 -4.46182,0 -8.22769,-3.91916 -8.22769,-8.82607 0,-1.97833 1.16366,-3.86436 2.24392,-5.3854 z"
             style="fill:url(#linearGradient4232);fill-opacity:1;stroke:none"
             inkscape:connector-curvature="0" />
        </g>
      </g>
    </g>
  </g>
</svg>
