<?xml version="1.0" encoding="UTF-8" standalone="no"?>
<!-- Created with Inkscape (http://www.inkscape.org/) -->

<svg
   xmlns:dc="http://purl.org/dc/elements/1.1/"
   xmlns:cc="http://creativecommons.org/ns#"
   xmlns:rdf="http://www.w3.org/1999/02/22-rdf-syntax-ns#"
   xmlns:svg="http://www.w3.org/2000/svg"
   xmlns="http://www.w3.org/2000/svg"
   xmlns:xlink="http://www.w3.org/1999/xlink"
   xmlns:sodipodi="http://sodipodi.sourceforge.net/DTD/sodipodi-0.dtd"
   xmlns:inkscape="http://www.inkscape.org/namespaces/inkscape"
   width="64"
   height="64"
   id="svg5453"
   version="1.1"
   inkscape:version="0.91 r13725"
   sodipodi:docname="hw-memory.svg"
   inkscape:export-filename="../hw-memory.png"
   inkscape:export-xdpi="28.125"
   inkscape:export-ydpi="28.125">
  <defs
     id="defs5455">
    <linearGradient
       id="linearGradient4251-0"
       inkscape:collect="always">
      <stop
         id="stop4253-4"
         offset="0"
         style="stop-color:#63984b;stop-opacity:1" />
      <stop
         id="stop4255-2"
         offset="1"
         style="stop-color:#8fc278;stop-opacity:1" />
    </linearGradient>
    <linearGradient
       id="linearGradient4159"
       inkscape:collect="always">
      <stop
         id="stop4161"
         offset="0"
         style="stop-color:#2a2c2f;stop-opacity:1" />
      <stop
         id="stop4163"
         offset="1"
         style="stop-color:#424649;stop-opacity:1" />
    </linearGradient>
    <linearGradient
       inkscape:collect="always"
       id="linearGradient4903">
      <stop
         style="stop-color:#eef1f2;stop-opacity:1"
         offset="0"
         id="stop4905" />
      <stop
         style="stop-color:#f9fafb;stop-opacity:1"
         offset="1"
         id="stop4907" />
    </linearGradient>
    <linearGradient
       id="linearGradient4227"
       inkscape:collect="always">
      <stop
         id="stop4229"
         offset="0"
         style="stop-color:#292c2f;stop-opacity:1" />
      <stop
         id="stop4231"
         offset="1"
         style="stop-color:#000000;stop-opacity:0;" />
    </linearGradient>
    <linearGradient
       inkscape:collect="always"
       xlink:href="#linearGradient4251-0"
       id="linearGradient4304"
       gradientUnits="userSpaceOnUse"
       gradientTransform="matrix(1.2307692,0,0,1.2307692,-470.85713,-634.67438)"
       x1="408.57144"
       y1="549.79797"
       x2="408.57144"
       y2="497.79797" />
    <linearGradient
       inkscape:collect="always"
       xlink:href="#linearGradient4227"
       id="linearGradient4306"
       gradientUnits="userSpaceOnUse"
       gradientTransform="matrix(1.2307692,0,0,1.2307692,-84.439537,-120.72257)"
       x1="408.57144"
       y1="518.79797"
       x2="417.57144"
       y2="527.79797" />
    <linearGradient
       inkscape:collect="always"
       xlink:href="#linearGradient4227"
       id="linearGradient4308"
       gradientUnits="userSpaceOnUse"
       gradientTransform="matrix(1.2307692,0,0,1.2307692,-74.593385,-120.72257)"
       x1="408.57144"
       y1="518.79797"
       x2="417.57144"
       y2="527.79797" />
    <linearGradient
       inkscape:collect="always"
       xlink:href="#linearGradient4227"
       id="linearGradient4310"
       gradientUnits="userSpaceOnUse"
       x1="408.57144"
       y1="518.79797"
       x2="417.57144"
       y2="527.79797"
       gradientTransform="matrix(1.2307692,0,0,1.2307692,-94.28569,-120.72257)" />
    <linearGradient
       inkscape:collect="always"
       xlink:href="#linearGradient4159"
       id="linearGradient4312"
       gradientUnits="userSpaceOnUse"
       gradientTransform="matrix(1.054945,0,0,1.094017,-19.635805,-49.775725)"
       x1="428.57144"
       y1="527.79797"
       x2="428.57144"
       y2="518.79797" />
    <linearGradient
       inkscape:collect="always"
       xlink:href="#linearGradient4903"
       id="linearGradient4314"
       gradientUnits="userSpaceOnUse"
       x1="398.57144"
       y1="526.79797"
       x2="398.57144"
       y2="519.79797"
       gradientTransform="matrix(1.2307692,0,0,1.2307692,-94.28569,-120.72257)" />
    <linearGradient
       inkscape:collect="always"
       xlink:href="#linearGradient4159"
       id="linearGradient4316"
       gradientUnits="userSpaceOnUse"
       gradientTransform="matrix(1.054945,0,0,1.094017,-29.481959,-49.775725)"
       x1="428.57144"
       y1="527.79797"
       x2="428.57144"
       y2="518.79797" />
    <linearGradient
       inkscape:collect="always"
       xlink:href="#linearGradient4159"
       id="linearGradient4318"
       gradientUnits="userSpaceOnUse"
       gradientTransform="matrix(1.054945,0,0,1.094017,-39.328111,-49.775725)"
       x1="428.57144"
       y1="527.79797"
       x2="428.57144"
       y2="518.79797" />
  </defs>
  <sodipodi:namedview
     id="base"
     pagecolor="#ffffff"
     bordercolor="#666666"
     borderopacity="1.0"
     inkscape:pageopacity="0"
     inkscape:pageshadow="2"
     inkscape:zoom="5.703125"
     inkscape:cx="4.2082192"
     inkscape:cy="31.824658"
     inkscape:document-units="px"
     inkscape:current-layer="layer1"
     showgrid="true"
     fit-margin-top="0"
     fit-margin-left="0"
     fit-margin-right="0"
     fit-margin-bottom="0"
     inkscape:window-width="1876"
     inkscape:window-height="1051"
     inkscape:window-x="0"
     inkscape:window-y="0"
     inkscape:window-maximized="1"
     inkscape:showpageshadow="false"
     borderlayer="true"
     showguides="true">
    <inkscape:grid
       type="xygrid"
       id="grid4063"
       originx="8"
       originy="8"
       empspacing="2" />
    <sodipodi:guide
       position="64,64"
       orientation="0,-64"
       id="guide4200" />
    <sodipodi:guide
       position="6,58"
       orientation="52,0"
       id="guide4202" />
    <sodipodi:guide
       position="6,6"
       orientation="0,52"
       id="guide4204" />
    <sodipodi:guide
       position="58,6"
       orientation="-52,0"
       id="guide4206" />
  </sodipodi:namedview>
  <metadata
     id="metadata5458">
    <rdf:RDF>
      <cc:Work
         rdf:about="">
        <dc:format>image/svg+xml</dc:format>
        <dc:type
           rdf:resource="http://purl.org/dc/dcmitype/StillImage" />
        <dc:title />
      </cc:Work>
    </rdf:RDF>
  </metadata>
  <g
     inkscape:label="Capa 1"
     inkscape:groupmode="layer"
     id="layer1"
     transform="translate(-376.57144,-491.79797)">
    <path
       style="opacity:1;fill:url(#linearGradient4304);fill-opacity:1;stroke:none"
       d="M 0 22.308594 L 0 42 L 26 42 L 26 38 L 28 38 L 28 42 L 64 42 L 64 22.308594 L 0 22.308594 z "
       transform="translate(376.57144,491.79797)"
       id="path4275" />
    <path
       inkscape:connector-curvature="0"
       id="path4277"
       d="m 425.8022,517.79797 -7.3846,9.84616 6.15384,6.15384 16,0 0,-1.23076 -14.76924,-14.76924 z"
       style="opacity:0.2;fill:url(#linearGradient4306);fill-opacity:1;fill-rule:evenodd;stroke:none;stroke-width:1px;stroke-linecap:butt;stroke-linejoin:miter;stroke-opacity:1" />
    <path
       inkscape:connector-curvature="0"
       id="path4279"
       d="m 435.64836,517.79797 -7.38462,9.84616 6.15386,6.15384 6.15384,0 0,-11.07692 -4.92308,-4.92308 z"
       style="opacity:0.2;fill:url(#linearGradient4308);fill-opacity:1;fill-rule:evenodd;stroke:none;stroke-width:1px;stroke-linecap:butt;stroke-linejoin:miter;stroke-opacity:1" />
    <path
       inkscape:connector-curvature="0"
       id="path4281"
       d="m 408.57144,527.64413 7.38462,-9.84616 16,16 -16,0 -2.46154,0 1.23076,0 z"
       style="opacity:0.2;fill:url(#linearGradient4310);fill-opacity:1;fill-rule:evenodd;stroke:none;stroke-width:1px;stroke-linecap:butt;stroke-linejoin:miter;stroke-opacity:1" />
    <path
       style="opacity:1;fill:#dce269;fill-opacity:1;stroke:none"
       d="M 0 40.769531 L 0 42 L 26 42 L 26 40.769531 L 0 40.769531 z M 28 40.769531 L 28 42 L 64 42 L 64 40.769531 L 28 40.769531 z "
       transform="translate(376.57144,491.79797)"
       id="rect4284" />
    <rect
       y="517.79803"
       x="428.26376"
       height="9.8461514"
       width="7.3846154"
       id="rect4286"
       style="opacity:1;fill:url(#linearGradient4312);fill-opacity:1;stroke:none" />
    <path
       inkscape:connector-curvature="0"
       id="path4288"
       d="m 436.87912,517.79797 0,1.23078 1.23078,0 0,-1.23078 -1.23078,0 z m 1.23078,1.23078 0,1.23076 1.23076,0 0,-1.23076 -1.23076,0 z m 0,1.23076 -1.23078,0 0,1.23076 1.23078,0 0,-1.23076 z m 0,1.23076 0,1.23078 1.23076,0 0,-1.23078 -1.23076,0 z m 0,1.23078 -1.23078,0 0,1.23076 1.23078,0 0,-1.23076 z m 0,1.23076 0,1.23078 1.23076,0 0,-1.23078 -1.23076,0 z m 0,1.23078 -1.23078,0 0,1.23076 1.23078,0 0,-1.23076 z m 0,1.23076 0,1.23078 1.23076,0 0,-1.23078 -1.23076,0 z m 0,1.23078 -1.23078,0 0,1.23076 1.23078,0 0,-1.23076 z m 0,1.23076 0,1.23078 1.23076,0 0,-1.23078 -1.23076,0 z m -1.23078,0 -1.23076,0 0,1.23078 1.23076,0 0,-1.23078 z m -1.23076,1.23078 -1.23076,0 0,1.23076 1.23076,0 0,-1.23076 z m -1.23076,0 0,-1.23078 -1.23078,0 0,1.23078 1.23078,0 z m -1.23078,0 -1.23076,0 0,1.23076 1.23076,0 0,-1.23076 z m -1.23076,0 0,-1.23078 -1.23078,0 0,1.23078 1.23078,0 z"
       style="opacity:0.6;fill:#dee372;fill-opacity:1;stroke:none" />
    <rect
       y="519.02869"
       x="380.26376"
       height="8.6153841"
       width="23.384613"
       id="rect4290"
       style="opacity:1;fill:url(#linearGradient4314);fill-opacity:1;stroke:none" />
    <rect
       style="opacity:1;fill:url(#linearGradient4316);fill-opacity:1;stroke:none"
       id="rect4292"
       width="7.3846154"
       height="9.8461514"
       x="418.41757"
       y="517.79803" />
    <rect
       y="517.79803"
       x="408.57144"
       height="9.8461514"
       width="7.3846154"
       id="rect4294"
       style="opacity:1;fill:url(#linearGradient4318);fill-opacity:1;stroke:none" />
    <rect
       y="520.25952"
       x="381.49454"
       height="1.2307692"
       width="9.8461533"
       id="rect4296"
       style="opacity:1;fill:#ff5555;fill-opacity:1;stroke:none" />
    <rect
       style="opacity:1;fill:#35383b;fill-opacity:1;stroke:none"
       id="rect4298"
       width="3.6923053"
       height="1.2307646"
       x="381.49454"
       y="522.72107" />
    <rect
       y="522.72107"
       x="386.41757"
       height="1.2307646"
       width="4.9230747"
       id="rect4300"
       style="opacity:1;fill:#35383b;fill-opacity:1;stroke:none" />
    <path
       inkscape:connector-curvature="0"
       id="path4302"
       d="m 386.4176,525.18259 0,1.23076 -1.23078,0 0,1.23078 1.23078,0 1.23076,0 1.23078,0 1.23076,0 1.23076,0 1.23078,0 1.23076,0 1.23078,0 1.23076,0 1.23078,0 0,-1.23078 -1.23078,0 0,-1.23076 -1.23076,0 0,1.23076 -1.23078,0 -1.23076,0 0,-1.23076 -1.23078,0 0,1.23076 -1.23076,0 0,-1.23076 -1.23076,0 0,1.23076 -1.23078,0 0,-1.23076 -1.23076,0 z"
       style="opacity:1;fill:#35383b;fill-opacity:1;stroke:none" />
  </g>
</svg>
