<?xml version="1.0" encoding="UTF-8" standalone="no"?>
<!-- Created with Inkscape (http://www.inkscape.org/) -->

<svg
   xmlns:dc="http://purl.org/dc/elements/1.1/"
   xmlns:cc="http://creativecommons.org/ns#"
   xmlns:rdf="http://www.w3.org/1999/02/22-rdf-syntax-ns#"
   xmlns:svg="http://www.w3.org/2000/svg"
   xmlns="http://www.w3.org/2000/svg"
   xmlns:xlink="http://www.w3.org/1999/xlink"
   xmlns:sodipodi="http://sodipodi.sourceforge.net/DTD/sodipodi-0.dtd"
   xmlns:inkscape="http://www.inkscape.org/namespaces/inkscape"
   width="64"
   height="64"
   id="svg5453"
   version="1.1"
   inkscape:version="0.91 r13725"
   sodipodi:docname="joystick.svg"
   inkscape:export-filename="../joystick.png"
   inkscape:export-xdpi="28.125"
   inkscape:export-ydpi="28.125">
  <defs
     id="defs5455">
    <linearGradient
       gradientUnits="userSpaceOnUse"
       y2="7.9999738"
       x2="6.0000119"
       y1="24"
       x1="6.0000119"
       id="linearGradient4417"
       xlink:href="#linearGradient4159"
       inkscape:collect="always" />
    <linearGradient
       gradientTransform="translate(-384.57143,-515.798)"
       gradientUnits="userSpaceOnUse"
       y2="526.79797"
       x2="393.57144"
       y1="532.79797"
       x1="393.57144"
       id="linearGradient4449"
       xlink:href="#linearGradient4219"
       inkscape:collect="always" />
    <linearGradient
       gradientTransform="translate(-384.57143,-515.798)"
       gradientUnits="userSpaceOnUse"
       y2="523.79797"
       x2="400.57144"
       y1="533.79797"
       x1="400.57144"
       id="linearGradient4467"
       xlink:href="#linearGradient4159"
       inkscape:collect="always" />
    <linearGradient
       gradientTransform="translate(-383.5714,-515.798)"
       gradientUnits="userSpaceOnUse"
       y2="532.79797"
       x2="399.57141"
       y1="536.79797"
       x1="399.57141"
       id="linearGradient4499"
       xlink:href="#linearGradient4159"
       inkscape:collect="always" />
    <linearGradient
       gradientUnits="userSpaceOnUse"
       y2="18"
       x2="16.000011"
       y1="20"
       x1="16.000011"
       id="linearGradient4529"
       xlink:href="#linearGradient4219"
       inkscape:collect="always" />
    <linearGradient
       inkscape:collect="always"
       id="linearGradient4219">
      <stop
         style="stop-color:#999a9c;stop-opacity:1"
         offset="0"
         id="stop4221" />
      <stop
         style="stop-color:#f4f5f5;stop-opacity:1"
         offset="1"
         id="stop4223" />
    </linearGradient>
    <linearGradient
       inkscape:collect="always"
       id="linearGradient4159">
      <stop
         style="stop-color:#2a2c2f;stop-opacity:1"
         offset="0"
         id="stop4161" />
      <stop
         style="stop-color:#424649;stop-opacity:1"
         offset="1"
         id="stop4163" />
    </linearGradient>
    <linearGradient
       inkscape:collect="always"
       id="linearGradient4347">
      <stop
         style="stop-color:#f33777;stop-opacity:1"
         offset="0"
         id="stop4349" />
      <stop
         style="stop-color:#fd2d65;stop-opacity:1"
         offset="1"
         id="stop4351" />
    </linearGradient>
    <linearGradient
       inkscape:collect="always"
       id="linearGradient4280">
      <stop
         style="stop-color:#c0392b;stop-opacity:1"
         offset="0"
         id="stop4282" />
      <stop
         style="stop-color:#e74c3c;stop-opacity:1"
         offset="1"
         id="stop4284" />
    </linearGradient>
    <linearGradient
       inkscape:collect="always"
       id="linearGradient4264">
      <stop
         style="stop-color:#2980b9;stop-opacity:1"
         offset="0"
         id="stop4266" />
      <stop
         style="stop-color:#3498db;stop-opacity:1"
         offset="1"
         id="stop4268" />
    </linearGradient>
    <linearGradient
       inkscape:collect="always"
       id="linearGradient4255">
      <stop
         style="stop-color:#27ae60;stop-opacity:1"
         offset="0"
         id="stop4257" />
      <stop
         style="stop-color:#2ecc71;stop-opacity:1"
         offset="1"
         id="stop4259" />
    </linearGradient>
    <linearGradient
       gradientUnits="userSpaceOnUse"
       y2="530.79797"
       x2="407.57144"
       y1="532.79797"
       x1="407.57144"
       id="linearGradient4725"
       xlink:href="#linearGradient4264"
       inkscape:collect="always" />
    <linearGradient
       gradientUnits="userSpaceOnUse"
       y2="526.79797"
       x2="407.57147"
       y1="528.79797"
       x1="407.57147"
       id="linearGradient4733"
       xlink:href="#linearGradient4255"
       inkscape:collect="always" />
    <linearGradient
       gradientUnits="userSpaceOnUse"
       y2="528.79797"
       x2="409.57144"
       y1="530.79797"
       x1="409.57144"
       id="linearGradient4741"
       xlink:href="#linearGradient4280"
       inkscape:collect="always" />
    <linearGradient
       gradientUnits="userSpaceOnUse"
       y2="528.79797"
       x2="405.57144"
       y1="530.79797"
       x1="405.57144"
       id="linearGradient4749"
       xlink:href="#linearGradient4347"
       inkscape:collect="always" />
    <linearGradient
       gradientUnits="userSpaceOnUse"
       y2="-380.35907"
       x2="541.03046"
       y1="260.88647"
       x1="538.42279"
       id="linearGradient4232"
       xlink:href="#linearGradient4159"
       inkscape:collect="always"
       gradientTransform="matrix(0.02482896,0,0,0.02482896,398.1382,525.24192)" />
    <linearGradient
       gradientUnits="userSpaceOnUse"
       y2="-392.89282"
       x2="97.999405"
       y1="110.55201"
       x1="97.999405"
       id="linearGradient4257"
       xlink:href="#linearGradient4159"
       inkscape:collect="always"
       gradientTransform="matrix(0.02482896,0,0,0.02482896,398.1382,525.55312)" />
  </defs>
  <sodipodi:namedview
     id="base"
     pagecolor="#ffffff"
     bordercolor="#666666"
     borderopacity="1.0"
     inkscape:pageopacity="0"
     inkscape:pageshadow="2"
     inkscape:zoom="5.6568546"
     inkscape:cx="24.149142"
     inkscape:cy="36.076848"
     inkscape:document-units="px"
     inkscape:current-layer="layer1-3"
     showgrid="true"
     fit-margin-top="0"
     fit-margin-left="0"
     fit-margin-right="0"
     fit-margin-bottom="0"
     inkscape:window-width="1876"
     inkscape:window-height="1051"
     inkscape:window-x="0"
     inkscape:window-y="0"
     inkscape:window-maximized="1"
     inkscape:showpageshadow="false"
     borderlayer="true"
     showguides="true">
    <inkscape:grid
       type="xygrid"
       id="grid4063"
       originx="7.9999866px"
       originy="7.9999772px" />
    <sodipodi:guide
       position="0,0"
       orientation="0,64"
       id="guide4196" />
    <sodipodi:guide
       position="64,0"
       orientation="-64,0"
       id="guide4198" />
    <sodipodi:guide
       position="64,64"
       orientation="0,-64"
       id="guide4200" />
    <sodipodi:guide
       position="6,58"
       orientation="52,0"
       id="guide4202" />
    <sodipodi:guide
       position="6,6"
       orientation="0,52"
       id="guide4204" />
    <sodipodi:guide
       position="58,6"
       orientation="-52,0"
       id="guide4206" />
    <sodipodi:guide
       position="58,58"
       orientation="0,-52"
       id="guide4208" />
  </sodipodi:namedview>
  <metadata
     id="metadata5458">
    <rdf:RDF>
      <cc:Work
         rdf:about="">
        <dc:format>image/svg+xml</dc:format>
        <dc:type
           rdf:resource="http://purl.org/dc/dcmitype/StillImage" />
        <dc:title />
      </cc:Work>
    </rdf:RDF>
  </metadata>
  <g
     inkscape:label="Capa 1"
     inkscape:groupmode="layer"
     id="layer1"
     transform="translate(-376.57144,-491.79797)">
    <g
       transform="matrix(2,0,0,2,-392.57142,-539.79803)"
       id="layer1-3"
       inkscape:label="Capa 1">
      <path
         sodipodi:nodetypes="cccccccccccccccc"
         inkscape:connector-curvature="0"
         id="path4220"
         transform="translate(384.57143,515.798)"
         d="M 4,14 3.0585938,21.525391 C 3.0201511,21.680681 3.0004793,21.840023 3,22 c 0,1.104569 0.8954305,2 2,2 0.5942892,-5.5e-4 1.1575536,-0.265362 1.5371094,-0.722656 l 0.00195,0.0039 L 12,17 Z m 24,0 -8,3 5.460938,6.28125 0.002,-0.0039 C 25.842447,23.734637 26.405711,23.99945 27,24 c 1.104569,0 2,-0.895431 2,-2 -4.79e-4,-0.159977 -0.02015,-0.319319 -0.05859,-0.474609 z"
         style="opacity:1;fill:url(#linearGradient4417);fill-opacity:1;stroke:none;stroke-width:0.1;stroke-linecap:square;stroke-linejoin:miter;stroke-miterlimit:4;stroke-dasharray:none;stroke-dashoffset:0;stroke-opacity:1" />
      <path
         sodipodi:nodetypes="ssccccssccs"
         inkscape:connector-curvature="0"
         transform="translate(384.57143,515.798)"
         id="rect4234"
         d="m 10,8 c -3.3137085,0 -6,2.686292 -6,6 0,3.313708 2.6862915,6 6,6 1.177744,-0.0012 2.329093,-0.348976 3.310547,-1 l 5.378906,0 c 0.981454,0.651024 2.132803,0.998806 3.310547,1 3.313708,0 6,-2.686292 6,-6 0,-3.313708 -2.686292,-6 -6,-6 l -5,0 -2,0 z"
         style="opacity:1;fill:url(#linearGradient4467);fill-opacity:1;stroke:none;stroke-width:0.1;stroke-linecap:square;stroke-linejoin:miter;stroke-miterlimit:4;stroke-dasharray:none;stroke-dashoffset:0;stroke-opacity:1" />
      <circle
         style="opacity:1;fill:#e3dbdb;fill-opacity:1;stroke:none;stroke-width:0.1;stroke-linecap:square;stroke-linejoin:miter;stroke-miterlimit:4;stroke-dasharray:none;stroke-dashoffset:0;stroke-opacity:1"
         id="ellipse4246"
         cx="393.57144"
         cy="529.79797"
         r="0" />
      <path
         id="path4717"
         d="m 407.57143,526.798 a 1,1 0 0 0 -1,1 1,1 0 0 0 1,1 1,1 0 0 0 1,-1 1,1 0 0 0 -1,-1 z"
         style="opacity:1;fill:url(#linearGradient4733);fill-opacity:1;stroke:none;stroke-width:0.1;stroke-linecap:square;stroke-linejoin:miter;stroke-miterlimit:4;stroke-dasharray:none;stroke-dashoffset:0;stroke-opacity:1"
         inkscape:connector-curvature="0" />
      <path
         id="path4715"
         d="m 405.57143,528.798 a 1,1 0 0 0 -1,1 1,1 0 0 0 1,1 1,1 0 0 0 1,-1 1,1 0 0 0 -1,-1 z"
         style="opacity:1;fill:url(#linearGradient4749);fill-opacity:1;stroke:none;stroke-width:0.1;stroke-linecap:square;stroke-linejoin:miter;stroke-miterlimit:4;stroke-dasharray:none;stroke-dashoffset:0;stroke-opacity:1"
         inkscape:connector-curvature="0" />
      <path
         id="path4713"
         d="m 409.57143,528.798 a 1,1 0 0 0 -1,1 1,1 0 0 0 1,1 1,1 0 0 0 1,-1 1,1 0 0 0 -1,-1 z"
         style="opacity:1;fill:url(#linearGradient4741);fill-opacity:1;stroke:none;stroke-width:0.1;stroke-linecap:square;stroke-linejoin:miter;stroke-miterlimit:4;stroke-dasharray:none;stroke-dashoffset:0;stroke-opacity:1"
         inkscape:connector-curvature="0" />
      <path
         id="path4268"
         d="m 407.57143,530.798 a 1,1 0 0 0 -1,1 1,1 0 0 0 1,1 1,1 0 0 0 1,-1 1,1 0 0 0 -1,-1 z"
         style="opacity:1;fill:url(#linearGradient4725);fill-opacity:1;stroke:none;stroke-width:0.1;stroke-linecap:square;stroke-linejoin:miter;stroke-miterlimit:4;stroke-dasharray:none;stroke-dashoffset:0;stroke-opacity:1"
         inkscape:connector-curvature="0" />
      <path
         id="rect4297"
         transform="translate(384.57143,515.798)"
         d="m 8,11 0,2 -2,0 0,2 2,0 0,2 2,0 0,-2 2,0 0,-2 -2,0 0,-2 -2,0 z"
         style="opacity:1;fill:url(#linearGradient4449);fill-opacity:1;stroke:none;stroke-width:0.1;stroke-linecap:square;stroke-linejoin:miter;stroke-miterlimit:4;stroke-dasharray:none;stroke-dashoffset:0;stroke-opacity:1"
         inkscape:connector-curvature="0" />
      <path
         id="circle4489"
         transform="translate(384.57143,515.798)"
         d="m 13,17 a 2,2 0 0 0 -2,2 2,2 0 0 0 2,2 2,2 0 0 0 2,-2 2,2 0 0 0 -2,-2 z m 6,0 a 2,2 0 0 0 -2,2 2,2 0 0 0 2,2 2,2 0 0 0 2,-2 2,2 0 0 0 -2,-2 z"
         style="opacity:1;fill:url(#linearGradient4499);fill-opacity:1;stroke:none;stroke-width:0.03333334;stroke-linecap:square;stroke-linejoin:miter;stroke-miterlimit:4;stroke-dasharray:none;stroke-dashoffset:0;stroke-opacity:1"
         inkscape:connector-curvature="0" />
      <path
         id="path4518"
         transform="translate(384.57143,515.798)"
         d="m 13,18 a 0.99999398,0.99999398 0 0 0 -1,1 0.99999398,0.99999398 0 0 0 1,1 0.99999398,0.99999398 0 0 0 1,-1 0.99999398,0.99999398 0 0 0 -1,-1 z m 6,0 a 1.000006,1.000006 0 0 0 -1,1 1.000006,1.000006 0 0 0 1,1 1.000006,1.000006 0 0 0 1,-1 1.000006,1.000006 0 0 0 -1,-1 z"
         style="opacity:1;fill:url(#linearGradient4529);fill-opacity:1;stroke:none;stroke-width:0.1;stroke-linecap:square;stroke-linejoin:miter;stroke-miterlimit:4;stroke-dasharray:none;stroke-dashoffset:0;stroke-opacity:1"
         inkscape:connector-curvature="0" />
      <path
         id="path3042-0-6-4"
         d="m 400.43735,526.29809 a 0.20052178,0.20052178 0 0 0 -0.20639,0.20042 0.200525,0.200525 0 0 0 0.40105,0 0.20052178,0.20052178 0 0 0 -0.19466,-0.20042 z m 0.49217,0.38097 a 0.23060004,0.23060004 0 0 0 -0.23733,0.23054 0.23060004,0.23060004 0 0 0 0.46118,0 0.23060004,0.23060004 0 0 0 -0.22385,-0.23054 z m -0.40047,0.40109 a 0.25065222,0.25065222 0 0 0 -0.25798,0.25052 0.25066581,0.25066581 0 0 0 0.50133,0 0.25065222,0.25065222 0 0 0 -0.24335,-0.25052 z m 0.47418,0.49066 c -0.15481,1.3e-4 -0.28074,0.12614 -0.28049,0.28112 1e-4,0.15458 0.12602,0.28035 0.28073,0.28035 l 2.5e-4,0 c 0.15478,-1.5e-4 0.28049,-0.12614 0.28049,-0.28112 -1.5e-4,-0.15458 -0.12606,-0.28035 -0.28098,-0.28035 z m -0.81262,0.1805 c -0.16583,1.7e-4 -0.30076,0.13512 -0.30051,0.30124 1.7e-4,0.16557 0.13508,0.30028 0.30076,0.30028 l 2.4e-4,0 0,5e-5 c 0.16583,-1.8e-4 0.30057,-0.13518 0.30057,-0.3013 -2e-4,-0.16556 -0.13512,-0.30027 -0.30105,-0.30027 z"
         style="font-style:normal;font-variant:normal;font-weight:bold;font-stretch:normal;font-size:medium;line-height:125%;font-family:'Clear Sans';-inkscape-font-specification:'Clear Sans Bold';letter-spacing:0px;word-spacing:0px;fill:url(#linearGradient4257);fill-opacity:1;stroke:none;stroke-width:1px;stroke-linecap:butt;stroke-linejoin:miter;stroke-opacity:1"
         inkscape:connector-curvature="0" />
      <path
         inkscape:connector-curvature="0"
         style="font-style:normal;font-variant:normal;font-weight:bold;font-stretch:normal;font-size:medium;line-height:125%;font-family:'Clear Sans';-inkscape-font-specification:'Clear Sans Bold';letter-spacing:0px;word-spacing:0px;fill:url(#linearGradient4232);fill-opacity:1;stroke:none;stroke-width:1px;stroke-linecap:butt;stroke-linejoin:miter;stroke-opacity:1"
         d="m 399.53851,528.23449 c -0.0674,0.001 -0.13414,0.0242 -0.18554,0.0781 -0.25947,0.33632 -0.46991,0.71461 -0.46991,1.17288 0,0.99331 0.75377,1.81251 1.68837,1.81251 0.93458,0 1.68837,-0.81919 1.68837,-1.81251 0,-0.45836 -0.21074,-0.82463 -0.48489,-1.17288 -0.1028,-0.10787 -0.25125,-0.0918 -0.35929,-0.0228 -0.31615,0.16359 -0.48678,0.22894 -0.84418,0.22734 -0.34567,-0.001 -0.5273,-0.058 -0.84346,-0.23035 -0.054,-0.033 -0.12207,-0.0535 -0.18947,-0.0523 z m 0.0398,0.35716 c 0.32769,0.18119 0.61995,0.27312 0.99315,0.27312 0.37352,0 0.66529,-0.0919 0.99316,-0.27312 0.17891,0.25225 0.34761,0.56505 0.34761,0.89384 0,0.81442 -0.60025,1.46491 -1.34077,1.46491 -0.74055,0 -1.36559,-0.65049 -1.36559,-1.46491 0,-0.32835 0.19314,-0.64139 0.37244,-0.89384 z"
         id="path4687-7-56-1-0-2-2-7"
         sodipodi:nodetypes="ccsssccscccscsssc" />
    </g>
  </g>
</svg>
