<?xml version="1.0" encoding="UTF-8" standalone="no"?>
<!-- Created with Inkscape (http://www.inkscape.org/) -->

<svg
   xmlns:dc="http://purl.org/dc/elements/1.1/"
   xmlns:cc="http://creativecommons.org/ns#"
   xmlns:rdf="http://www.w3.org/1999/02/22-rdf-syntax-ns#"
   xmlns:svg="http://www.w3.org/2000/svg"
   xmlns="http://www.w3.org/2000/svg"
   xmlns:xlink="http://www.w3.org/1999/xlink"
   xmlns:sodipodi="http://sodipodi.sourceforge.net/DTD/sodipodi-0.dtd"
   xmlns:inkscape="http://www.inkscape.org/namespaces/inkscape"
   width="20"
   height="20"
   id="svg5453"
   version="1.1"
   inkscape:version="0.91 r13725"
   sodipodi:docname="usb.svg"
   inkscape:export-filename="../usb.png"
   inkscape:export-xdpi="90"
   inkscape:export-ydpi="90">
  <defs
     id="defs5455">
    <linearGradient
       id="linearGradient4290"
       inkscape:collect="always">
      <stop
         id="stop4292"
         offset="0"
         style="stop-color:#7cbaf8;stop-opacity:1" />
      <stop
         id="stop4294"
         offset="1"
         style="stop-color:#f4fcff;stop-opacity:1" />
    </linearGradient>
    <linearGradient
       inkscape:collect="always"
       xlink:href="#linearGradient4290"
       id="linearGradient4194"
       x1="398.57144"
       y1="535.79797"
       x2="398.57144"
       y2="527.79797"
       gradientUnits="userSpaceOnUse" />
    <linearGradient
       inkscape:collect="always"
       xlink:href="#linearGradient4290"
       id="linearGradient4175"
       gradientUnits="userSpaceOnUse"
       x1="398.57144"
       y1="535.79797"
       x2="398.57144"
       y2="527.79797" />
    <linearGradient
       inkscape:collect="always"
       id="linearGradient4226">
      <stop
         style="stop-color:#262f45;stop-opacity:1;"
         offset="0"
         id="stop4228" />
      <stop
         style="stop-color:#485982;stop-opacity:1"
         offset="1"
         id="stop4230" />
    </linearGradient>
    <linearGradient
       inkscape:collect="always"
       xlink:href="#linearGradient4226"
       id="linearGradient4197"
       gradientUnits="userSpaceOnUse"
       x1="12.411012"
       y1="-21.083635"
       x2="395.27423"
       y2="-21.083635"
       gradientTransform="matrix(0.04440221,0,0,0.04440221,384.02038,531.73412)" />
    <linearGradient
       inkscape:collect="always"
       xlink:href="#linearGradient4226"
       id="linearGradient4197-9"
       gradientUnits="userSpaceOnUse"
       x1="12.411012"
       y1="-21.083635"
       x2="462.83844"
       y2="-21.08341"
       gradientTransform="matrix(0.04440221,0,0,0.04440221,384.02038,531.73411)" />
  </defs>
  <sodipodi:namedview
     id="base"
     pagecolor="#ffffff"
     bordercolor="#666666"
     borderopacity="1.0"
     inkscape:pageopacity="0"
     inkscape:pageshadow="2"
     inkscape:zoom="8.0009132"
     inkscape:cx="16.088069"
     inkscape:cy="14.043225"
     inkscape:document-units="px"
     inkscape:current-layer="g4171"
     showgrid="true"
     fit-margin-top="0"
     fit-margin-left="0"
     fit-margin-right="0"
     fit-margin-bottom="0"
     inkscape:window-width="1876"
     inkscape:window-height="1051"
     inkscape:window-x="0"
     inkscape:window-y="0"
     inkscape:window-maximized="1"
     inkscape:showpageshadow="false"
     borderlayer="true"
     showguides="true"
     inkscape:snap-midpoints="false">
    <inkscape:grid
       type="xygrid"
       id="grid4063" />
    <sodipodi:guide
       position="1.1650391e-05,32.000026"
       orientation="32,0"
       id="guide4157" />
    <sodipodi:guide
       position="1.1650391e-05,2.6367188e-05"
       orientation="0,32"
       id="guide4159" />
    <sodipodi:guide
       position="32.000012,2.6367188e-05"
       orientation="-32,0"
       id="guide4161" />
    <sodipodi:guide
       position="32.000012,32.000026"
       orientation="0,-32"
       id="guide4163" />
    <sodipodi:guide
       position="2.0000117,2.0000264"
       orientation="0,28"
       id="guide4169" />
    <sodipodi:guide
       position="30.000012,2.0000264"
       orientation="-28,0"
       id="guide4171" />
    <sodipodi:guide
       position="30.000012,30.000026"
       orientation="0,-28"
       id="guide4173" />
    <sodipodi:guide
       position="2.0000117,30.000026"
       orientation="28,0"
       id="guide4181" />
    <sodipodi:guide
       position="2.0000117,2.0000264"
       orientation="0,14"
       id="guide4183" />
    <sodipodi:guide
       position="16.000012,2.0000264"
       orientation="-28,0"
       id="guide4185" />
    <sodipodi:guide
       position="16.000012,30.000026"
       orientation="0,-14"
       id="guide4187" />
    <sodipodi:guide
       position="9.0000117,23.000026"
       orientation="14,0"
       id="guide4193" />
    <sodipodi:guide
       position="9.0000117,9.0000264"
       orientation="0,14.000031"
       id="guide4195" />
    <sodipodi:guide
       position="23.000042,23.000026"
       orientation="0,-14.000031"
       id="guide4199" />
  </sodipodi:namedview>
  <metadata
     id="metadata5458">
    <rdf:RDF>
      <cc:Work
         rdf:about="">
        <dc:format>image/svg+xml</dc:format>
        <dc:type
           rdf:resource="http://purl.org/dc/dcmitype/StillImage" />
        <dc:title></dc:title>
      </cc:Work>
    </rdf:RDF>
  </metadata>
  <g
     inkscape:label="Capa 1"
     inkscape:groupmode="layer"
     id="layer1"
     transform="translate(-384.57143,-527.798)">
    <g
       style="font-style:normal;font-variant:normal;font-weight:bold;font-stretch:normal;font-size:12.5px;line-height:125%;font-family:'Clear Sans';-inkscape-font-specification:'Clear Sans Bold';letter-spacing:0px;word-spacing:0px;opacity:1;fill:url(#linearGradient4194);fill-opacity:1;stroke:none;stroke-width:1px;stroke-linecap:butt;stroke-linejoin:miter;stroke-opacity:1"
       id="text4184">
      <g
         id="g4171"
         style="fill:url(#linearGradient4175);fill-opacity:1">
        <path
           id="path1334"
           d="m 402.34957,536.74305 -11.356,0 2.21114,-1.71116 c 0.18818,-0.15083 0.43439,-0.22771 0.68766,-0.23357 1.02458,0 1.85699,-7.2e-4 1.85699,-7.2e-4 l 0,-0.99948 -1.83524,-3.1e-4 c -0.49739,0 -1.01858,0.22872 -1.35031,0.54862 0.009,-0.009 0.0185,-0.0196 -5.4e-4,1.8e-4 -0.007,0.008 -2.97087,2.16579 -2.97087,2.16579 -0.18778,0.15062 -0.43386,0.25576 -0.68695,0.26179 l -1.28464,0 0.0948,1.02377 1.26214,0 c 0.003,0 0.006,1.8e-4 0.01,0 l 2.79161,0 c 0.2526,0.006 0.49837,0.14096 0.68597,0.29176 0,0 2.86866,2.16086 2.8759,2.16883 0.0187,0.0199 0.009,0.01 1.8e-4,1.8e-4 0.33173,0.31989 0.85313,0.53943 1.35063,0.53943 l 1.76862,-4e-4 0,-0.99938 c 0,0 -0.46583,-8.4e-4 -1.7903,-8.4e-4 -0.25332,-0.006 -0.49978,-0.14568 -0.68787,-0.29651 l -2.21163,-1.70307 8.5789,0 z"
           style="fill:url(#linearGradient4197);fill-opacity:1"
           inkscape:connector-curvature="0"
           sodipodi:nodetypes="cccccccccccccsccccccccccccc" />
        <rect
           style="color:#000000;clip-rule:nonzero;display:inline;overflow:visible;visibility:visible;opacity:1;isolation:auto;mix-blend-mode:normal;color-interpolation:sRGB;color-interpolation-filters:linearRGB;solid-color:#000000;solid-opacity:1;fill:#394667;fill-opacity:1;fill-rule:nonzero;stroke:none;stroke-width:0;stroke-linecap:butt;stroke-linejoin:miter;stroke-miterlimit:4;stroke-dasharray:none;stroke-dashoffset:0;stroke-opacity:1;marker:none;color-rendering:auto;image-rendering:auto;shape-rendering:auto;text-rendering:auto;enable-background:accumulate"
           id="rect4235"
           width="3"
           height="3"
           x="538.79797"
           y="-399.57147"
           transform="matrix(0,1,-1,0,0,0)" />
        <ellipse
           style="color:#000000;clip-rule:nonzero;display:inline;overflow:visible;visibility:visible;opacity:1;isolation:auto;mix-blend-mode:normal;color-interpolation:sRGB;color-interpolation-filters:linearRGB;solid-color:#000000;solid-opacity:1;fill:#394667;fill-opacity:1;fill-rule:nonzero;stroke:none;stroke-width:0;stroke-linecap:butt;stroke-linejoin:miter;stroke-miterlimit:4;stroke-dasharray:none;stroke-dashoffset:0;stroke-opacity:1;marker:none;color-rendering:auto;image-rendering:auto;shape-rendering:auto;text-rendering:auto;enable-background:accumulate"
           id="path4237"
           cx="534.29797"
           cy="-395.07147"
           rx="1.5000058"
           ry="1.5"
           transform="matrix(0,1,-1,0,0,0)" />
        <path
           style="fill:#394667;fill-opacity:1;fill-rule:evenodd;stroke:none;stroke-width:1px;stroke-linecap:butt;stroke-linejoin:miter;stroke-opacity:1"
           d="m 401.57143,535.79797 0,2.99999 3,-1.5 z"
           id="path4239"
           inkscape:connector-curvature="0"
           sodipodi:nodetypes="cccc" />
        <circle
           style="color:#000000;clip-rule:nonzero;display:inline;overflow:visible;visibility:visible;opacity:1;isolation:auto;mix-blend-mode:normal;color-interpolation:sRGB;color-interpolation-filters:linearRGB;solid-color:#000000;solid-opacity:1;fill:#394667;fill-opacity:1;fill-rule:nonzero;stroke:none;stroke-width:0;stroke-linecap:butt;stroke-linejoin:miter;stroke-miterlimit:4;stroke-dasharray:none;stroke-dashoffset:0;stroke-opacity:1;marker:none;color-rendering:auto;image-rendering:auto;shape-rendering:auto;text-rendering:auto;enable-background:accumulate"
           id="path4241"
           cx="537.29797"
           cy="-387.07147"
           r="2.5"
           transform="matrix(0,1,-1,0,0,0)" />
        <path
           style="font-style:normal;font-variant:normal;font-weight:bold;font-stretch:normal;font-size:12.5px;line-height:125%;font-family:'Clear Sans';-inkscape-font-specification:'Clear Sans Bold';letter-spacing:0px;word-spacing:0px;opacity:1;fill:url(#linearGradient4197-9);fill-opacity:1;stroke:none;stroke-width:1px;stroke-linecap:butt;stroke-linejoin:miter;stroke-opacity:1"
           d="m 404.57143,537.29796 -3,-1.5 0,0.94531 -10.57812,0 2.21093,-1.71093 c 0.13165,-0.10552 0.29581,-0.16313 0.4668,-0.19727 a 1.5,1.5000058 0 0 0 1.40039,0.96289 1.5,1.5000058 0 0 0 1.5,-1.5 1.5,1.5000058 0 0 0 -1.5,-1.5 1.5,1.5000058 0 0 0 -1.42383,1.0293 c -0.41025,0.0634 -0.81131,0.25658 -1.08398,0.51953 -0.007,0.008 -2.97071,2.16601 -2.97071,2.16601 -0.0373,0.0299 -0.0855,0.0483 -0.12695,0.0742 a 2.5,2.5 0 0 0 -2.39453,-1.78906 2.5,2.5 0 0 0 -2.5,2.5 2.5,2.5 0 0 0 2.5,2.5 2.5,2.5 0 0 0 2.44922,-2 l 2.25781,0 c 0.2526,0.006 0.4999,0.14022 0.6875,0.29102 0,0 2.86776,2.16195 2.875,2.16992 0.30497,0.29408 0.77083,0.49549 1.23047,0.52734 l 0,1.01172 3,0 0,-3 -3,0 0,0.97461 c -0.21672,-0.0345 -0.42714,-0.14101 -0.58984,-0.27148 l -2.21094,-1.70313 7.80078,0 0,1 3,-1.5 z"
           id="path1334-7"
           inkscape:connector-curvature="0" />
      </g>
    </g>
  </g>
</svg>
